<svg xmlns="http://www.w3.org/2000/svg" xmlns:xlink="http://www.w3.org/1999/xlink" width="500" zoomAndPan="magnify" viewBox="0 0 375 374.999991" height="500" preserveAspectRatio="xMidYMid meet" version="1.0"><defs><clipPath id="id1"><path d="M 100 214 L 175 214 L 175 253 L 100 253 Z M 100 214 " clip-rule="nonzero"/></clipPath><clipPath id="id2"><path d="M 92.765625 -7.039062 L 376.628906 82.828125 L 282.007812 381.707031 L -1.855469 291.839844 Z M 92.765625 -7.039062 " clip-rule="nonzero"/></clipPath><clipPath id="id3"><path d="M 92.765625 -7.039062 L 376.628906 82.828125 L 282.007812 381.707031 L -1.855469 291.839844 Z M 92.765625 -7.039062 " clip-rule="nonzero"/></clipPath><clipPath id="id4"><path d="M 92.765625 -7.039062 L 376.628906 82.828125 L 282.007812 381.707031 L -1.855469 291.839844 Z M 92.765625 -7.039062 " clip-rule="nonzero"/></clipPath><clipPath id="id5"><path d="M 67 80 L 370 80 L 370 339 L 67 339 Z M 67 80 " clip-rule="nonzero"/></clipPath><clipPath id="id6"><path d="M 92.765625 -7.039062 L 376.628906 82.828125 L 282.007812 381.707031 L -1.855469 291.839844 Z M 92.765625 -7.039062 " clip-rule="nonzero"/></clipPath><clipPath id="id7"><path d="M 92.765625 -7.039062 L 376.628906 82.828125 L 282.007812 381.707031 L -1.855469 291.839844 Z M 92.765625 -7.039062 " clip-rule="nonzero"/></clipPath><clipPath id="id8"><path d="M 92.765625 -7.039062 L 376.628906 82.828125 L 282.007812 381.707031 L -1.855469 291.839844 Z M 92.765625 -7.039062 " clip-rule="nonzero"/></clipPath><clipPath id="id9"><path d="M 96 86 L 368 86 L 368 253 L 96 253 Z M 96 86 " clip-rule="nonzero"/></clipPath><clipPath id="id10"><path d="M 92.765625 -7.039062 L 376.628906 82.828125 L 282.007812 381.707031 L -1.855469 291.839844 Z M 92.765625 -7.039062 " clip-rule="nonzero"/></clipPath><clipPath id="id11"><path d="M 92.765625 -7.039062 L 376.628906 82.828125 L 282.007812 381.707031 L -1.855469 291.839844 Z M 92.765625 -7.039062 " clip-rule="nonzero"/></clipPath><clipPath id="id12"><path d="M 92.765625 -7.039062 L 376.628906 82.828125 L 282.007812 381.707031 L -1.855469 291.839844 Z M 92.765625 -7.039062 " clip-rule="nonzero"/></clipPath><clipPath id="id13"><path d="M 96 151 L 255 151 L 255 253 L 96 253 Z M 96 151 " clip-rule="nonzero"/></clipPath><clipPath id="id14"><path d="M 92.765625 -7.039062 L 376.628906 82.828125 L 282.007812 381.707031 L -1.855469 291.839844 Z M 92.765625 -7.039062 " clip-rule="nonzero"/></clipPath><clipPath id="id15"><path d="M 92.765625 -7.039062 L 376.628906 82.828125 L 282.007812 381.707031 L -1.855469 291.839844 Z M 92.765625 -7.039062 " clip-rule="nonzero"/></clipPath><clipPath id="id16"><path d="M 92.765625 -7.039062 L 376.628906 82.828125 L 282.007812 381.707031 L -1.855469 291.839844 Z M 92.765625 -7.039062 " clip-rule="nonzero"/></clipPath><clipPath id="id17"><path d="M 79 286 L 133 286 L 133 319 L 79 319 Z M 79 286 " clip-rule="nonzero"/></clipPath><clipPath id="id18"><path d="M 92.765625 -7.039062 L 376.628906 82.828125 L 282.007812 381.707031 L -1.855469 291.839844 Z M 92.765625 -7.039062 " clip-rule="nonzero"/></clipPath><clipPath id="id19"><path d="M 92.765625 -7.039062 L 376.628906 82.828125 L 282.007812 381.707031 L -1.855469 291.839844 Z M 92.765625 -7.039062 " clip-rule="nonzero"/></clipPath><clipPath id="id20"><path d="M 92.765625 -7.039062 L 376.628906 82.828125 L 282.007812 381.707031 L -1.855469 291.839844 Z M 92.765625 -7.039062 " clip-rule="nonzero"/></clipPath><clipPath id="id21"><path d="M 32 166 L 73 166 L 73 192 L 32 192 Z M 32 166 " clip-rule="nonzero"/></clipPath><clipPath id="id22"><path d="M 92.765625 -7.039062 L 376.628906 82.828125 L 282.007812 381.707031 L -1.855469 291.839844 Z M 92.765625 -7.039062 " clip-rule="nonzero"/></clipPath><clipPath id="id23"><path d="M 92.765625 -7.039062 L 376.628906 82.828125 L 282.007812 381.707031 L -1.855469 291.839844 Z M 92.765625 -7.039062 " clip-rule="nonzero"/></clipPath><clipPath id="id24"><path d="M 92.765625 -7.039062 L 376.628906 82.828125 L 282.007812 381.707031 L -1.855469 291.839844 Z M 92.765625 -7.039062 " clip-rule="nonzero"/></clipPath><clipPath id="id25"><path d="M 38 247 L 74 247 L 74 271 L 38 271 Z M 38 247 " clip-rule="nonzero"/></clipPath><clipPath id="id26"><path d="M 92.765625 -7.039062 L 376.628906 82.828125 L 282.007812 381.707031 L -1.855469 291.839844 Z M 92.765625 -7.039062 " clip-rule="nonzero"/></clipPath><clipPath id="id27"><path d="M 92.765625 -7.039062 L 376.628906 82.828125 L 282.007812 381.707031 L -1.855469 291.839844 Z M 92.765625 -7.039062 " clip-rule="nonzero"/></clipPath><clipPath id="id28"><path d="M 92.765625 -7.039062 L 376.628906 82.828125 L 282.007812 381.707031 L -1.855469 291.839844 Z M 92.765625 -7.039062 " clip-rule="nonzero"/></clipPath></defs><rect x="-37.5" width="450" fill="#ffffff" y="-37.499999" height="449.999989" fill-opacity="1"/><rect x="-37.5" width="450" fill="#ffffff" y="-37.499999" height="449.999989" fill-opacity="1"/><rect x="-37.5" width="450" fill="#ffffff" y="-37.499999" height="449.999989" fill-opacity="1"/><rect x="-37.5" width="450" fill="#ffffff" y="-37.499999" height="449.999989" fill-opacity="1"/><g clip-path="url(#id1)"><g clip-path="url(#id2)"><g clip-path="url(#id3)"><g clip-path="url(#id4)"><path fill="#7397da" d="M 174.390625 223.519531 L 104.183594 214.195312 L 100.226562 252.769531 L 168.945312 246.949219 Z M 174.390625 223.519531 " fill-opacity="1" fill-rule="nonzero"/></g></g></g></g><g clip-path="url(#id5)"><g clip-path="url(#id6)"><g clip-path="url(#id7)"><g clip-path="url(#id8)"><path fill="#80bbe6" d="M 177.621094 331.925781 L 68.988281 122.582031 C 65.40625 115.675781 69.953125 107.339844 77.695312 106.617188 L 355.429688 80.648438 C 366.4375 79.625 373.511719 92.050781 367.015625 100.992188 L 198.128906 333.460938 C 192.84375 340.734375 181.757812 339.902344 177.621094 331.925781 Z M 177.621094 331.925781 " fill-opacity="1" fill-rule="nonzero"/></g></g></g></g><g clip-path="url(#id9)"><g clip-path="url(#id10)"><g clip-path="url(#id11)"><g clip-path="url(#id12)"><path fill="#eeeeed" d="M 97.71875 177.945312 L 96.015625 248.871094 C 95.933594 252.441406 100.355469 254.160156 102.699219 251.476562 L 123.515625 227.664062 L 367.363281 86.398438 Z M 97.71875 177.945312 " fill-opacity="1" fill-rule="nonzero"/></g></g></g></g><g clip-path="url(#id13)"><g clip-path="url(#id14)"><g clip-path="url(#id15)"><g clip-path="url(#id16)"><path fill="#dfdfdd" d="M 97.007812 207.535156 L 96.015625 248.871094 C 95.933594 252.441406 100.355469 254.160156 102.699219 251.476562 L 123.515625 227.664062 L 254.429688 151.890625 C 191.53125 183.925781 131.351562 207.132812 97.007812 207.535156 Z M 97.007812 207.535156 " fill-opacity="1" fill-rule="nonzero"/></g></g></g></g><g clip-path="url(#id17)"><g clip-path="url(#id18)"><g clip-path="url(#id19)"><g clip-path="url(#id20)"><path fill="#bebfc0" d="M 82.433594 318.523438 C 81.324219 318.171875 80.347656 317.398438 79.769531 316.285156 C 78.613281 314.058594 79.480469 311.3125 81.707031 310.15625 L 125.84375 287.242188 C 128.070312 286.085938 130.8125 286.953125 131.96875 289.179688 C 133.125 291.410156 132.253906 294.15625 130.027344 295.308594 L 85.894531 318.226562 C 84.78125 318.804688 83.539062 318.875 82.433594 318.523438 Z M 82.433594 318.523438 " fill-opacity="1" fill-rule="nonzero"/></g></g></g></g><g clip-path="url(#id21)"><g clip-path="url(#id22)"><g clip-path="url(#id23)"><g clip-path="url(#id24)"><path fill="#bebfc0" d="M 35.585938 190.953125 C 34.476562 190.601562 33.503906 189.828125 32.925781 188.714844 C 31.769531 186.484375 32.640625 183.742188 34.867188 182.585938 L 65.527344 166.667969 C 67.753906 165.511719 70.496094 166.378906 71.652344 168.605469 C 72.808594 170.835938 71.941406 173.574219 69.710938 174.730469 L 39.054688 190.652344 C 37.9375 191.230469 36.695312 191.300781 35.585938 190.953125 Z M 35.585938 190.953125 " fill-opacity="1" fill-rule="nonzero"/></g></g></g></g><g clip-path="url(#id25)"><g clip-path="url(#id26)"><g clip-path="url(#id27)"><g clip-path="url(#id28)"><path fill="#bebfc0" d="M 41.261719 269.976562 C 40.152344 269.625 39.179688 268.851562 38.601562 267.738281 C 37.445312 265.511719 38.3125 262.765625 40.542969 261.613281 L 66.914062 247.917969 C 69.144531 246.761719 71.886719 247.628906 73.039062 249.855469 C 74.199219 252.085938 73.332031 254.828125 71.101562 255.980469 L 44.726562 269.675781 C 43.613281 270.253906 42.371094 270.328125 41.261719 269.976562 Z M 41.261719 269.976562 " fill-opacity="1" fill-rule="nonzero"/></g></g></g></g></svg>